<mxfile host="app.diagrams.net" modified="2023-08-14T15:22:03.390Z" agent="Mozilla/5.0 (Windows NT 10.0; Win64; x64) AppleWebKit/537.36 (KHTML, like Gecko) Chrome/115.0.0.0 Safari/537.36" etag="sYDcEHJQZmkiDpQnFDzJ" version="21.6.8" type="device">
  <diagram id="R2lEEEUBdFMjLlhIrx00" name="Page-1">
    <mxGraphModel dx="1938" dy="501" grid="1" gridSize="10" guides="1" tooltips="1" connect="1" arrows="1" fold="1" page="1" pageScale="1" pageWidth="850" pageHeight="1100" math="0" shadow="0" extFonts="Permanent Marker^https://fonts.googleapis.com/css?family=Permanent+Marker">
      <root>
        <mxCell id="0" />
        <mxCell id="1" parent="0" />
        <mxCell id="7eArS-okKIMyMrA4SsoB-1" value="Accounts" style="whiteSpace=wrap;html=1;align=center;" vertex="1" parent="1">
          <mxGeometry x="230" y="350" width="140" height="70" as="geometry" />
        </mxCell>
        <mxCell id="7eArS-okKIMyMrA4SsoB-2" value="Customer" style="whiteSpace=wrap;html=1;align=center;" vertex="1" parent="1">
          <mxGeometry x="10" y="210" width="130" height="70" as="geometry" />
        </mxCell>
        <mxCell id="7eArS-okKIMyMrA4SsoB-3" value="Branch" style="whiteSpace=wrap;html=1;align=center;" vertex="1" parent="1">
          <mxGeometry x="230" y="585" width="140" height="70" as="geometry" />
        </mxCell>
        <mxCell id="7eArS-okKIMyMrA4SsoB-4" value="TransferTransactions" style="whiteSpace=wrap;html=1;align=center;" vertex="1" parent="1">
          <mxGeometry x="-280" y="570" width="130" height="70" as="geometry" />
        </mxCell>
        <mxCell id="7eArS-okKIMyMrA4SsoB-6" value="FixedDeposits" style="whiteSpace=wrap;html=1;align=center;" vertex="1" parent="1">
          <mxGeometry x="-280" y="315" width="130" height="70" as="geometry" />
        </mxCell>
        <mxCell id="7eArS-okKIMyMrA4SsoB-7" value="CIF" style="ellipse;whiteSpace=wrap;html=1;align=center;fontStyle=4;" vertex="1" parent="1">
          <mxGeometry x="-170" y="130" width="100" height="40" as="geometry" />
        </mxCell>
        <mxCell id="7eArS-okKIMyMrA4SsoB-8" value="AccountNo" style="ellipse;whiteSpace=wrap;html=1;align=center;fontStyle=4;" vertex="1" parent="1">
          <mxGeometry x="410" y="280" width="100" height="40" as="geometry" />
        </mxCell>
        <mxCell id="7eArS-okKIMyMrA4SsoB-9" value="Name" style="ellipse;whiteSpace=wrap;html=1;align=center;" vertex="1" parent="1">
          <mxGeometry x="-50" y="130" width="100" height="40" as="geometry" />
        </mxCell>
        <mxCell id="7eArS-okKIMyMrA4SsoB-10" value="Phone" style="ellipse;whiteSpace=wrap;html=1;align=center;" vertex="1" parent="1">
          <mxGeometry x="70" y="130" width="100" height="40" as="geometry" />
        </mxCell>
        <mxCell id="7eArS-okKIMyMrA4SsoB-11" value="Address" style="ellipse;whiteSpace=wrap;html=1;align=center;" vertex="1" parent="1">
          <mxGeometry x="190" y="130" width="100" height="40" as="geometry" />
        </mxCell>
        <mxCell id="7eArS-okKIMyMrA4SsoB-13" value="" style="endArrow=none;html=1;rounded=0;exitX=0.5;exitY=1;exitDx=0;exitDy=0;entryX=0.5;entryY=0;entryDx=0;entryDy=0;edgeStyle=orthogonalEdgeStyle;" edge="1" parent="1" source="7eArS-okKIMyMrA4SsoB-9" target="7eArS-okKIMyMrA4SsoB-2">
          <mxGeometry width="50" height="50" relative="1" as="geometry">
            <mxPoint x="120" y="240" as="sourcePoint" />
            <mxPoint x="170" y="190" as="targetPoint" />
          </mxGeometry>
        </mxCell>
        <mxCell id="7eArS-okKIMyMrA4SsoB-15" value="" style="endArrow=none;html=1;rounded=0;entryX=0.5;entryY=1;entryDx=0;entryDy=0;exitX=0.5;exitY=0;exitDx=0;exitDy=0;edgeStyle=orthogonalEdgeStyle;" edge="1" parent="1" source="7eArS-okKIMyMrA4SsoB-2" target="7eArS-okKIMyMrA4SsoB-10">
          <mxGeometry width="50" height="50" relative="1" as="geometry">
            <mxPoint x="120" y="240" as="sourcePoint" />
            <mxPoint x="170" y="190" as="targetPoint" />
          </mxGeometry>
        </mxCell>
        <mxCell id="7eArS-okKIMyMrA4SsoB-17" value="" style="endArrow=none;html=1;rounded=0;entryX=0.5;entryY=1;entryDx=0;entryDy=0;exitX=0.5;exitY=0;exitDx=0;exitDy=0;edgeStyle=orthogonalEdgeStyle;" edge="1" parent="1" source="7eArS-okKIMyMrA4SsoB-2" target="7eArS-okKIMyMrA4SsoB-11">
          <mxGeometry width="50" height="50" relative="1" as="geometry">
            <mxPoint x="120" y="240" as="sourcePoint" />
            <mxPoint x="170" y="190" as="targetPoint" />
          </mxGeometry>
        </mxCell>
        <mxCell id="7eArS-okKIMyMrA4SsoB-18" value="" style="endArrow=none;html=1;rounded=0;entryX=0.5;entryY=1;entryDx=0;entryDy=0;exitX=0.5;exitY=0;exitDx=0;exitDy=0;edgeStyle=orthogonalEdgeStyle;" edge="1" parent="1" source="7eArS-okKIMyMrA4SsoB-2" target="7eArS-okKIMyMrA4SsoB-7">
          <mxGeometry width="50" height="50" relative="1" as="geometry">
            <mxPoint x="120" y="240" as="sourcePoint" />
            <mxPoint x="170" y="190" as="targetPoint" />
          </mxGeometry>
        </mxCell>
        <mxCell id="7eArS-okKIMyMrA4SsoB-19" value="CIF" style="ellipse;whiteSpace=wrap;html=1;align=center;" vertex="1" parent="1">
          <mxGeometry x="410" y="365" width="100" height="40" as="geometry" />
        </mxCell>
        <mxCell id="7eArS-okKIMyMrA4SsoB-20" value="BranchCode" style="ellipse;whiteSpace=wrap;html=1;align=center;" vertex="1" parent="1">
          <mxGeometry x="410" y="450" width="100" height="40" as="geometry" />
        </mxCell>
        <mxCell id="7eArS-okKIMyMrA4SsoB-22" value="" style="endArrow=none;html=1;rounded=0;entryX=0;entryY=0.5;entryDx=0;entryDy=0;exitX=1;exitY=0.5;exitDx=0;exitDy=0;edgeStyle=orthogonalEdgeStyle;" edge="1" parent="1" source="7eArS-okKIMyMrA4SsoB-1" target="7eArS-okKIMyMrA4SsoB-8">
          <mxGeometry width="50" height="50" relative="1" as="geometry">
            <mxPoint x="380" y="390" as="sourcePoint" />
            <mxPoint x="400" y="390" as="targetPoint" />
          </mxGeometry>
        </mxCell>
        <mxCell id="7eArS-okKIMyMrA4SsoB-23" value="" style="endArrow=none;html=1;rounded=0;entryX=0;entryY=0.5;entryDx=0;entryDy=0;exitX=1;exitY=0.5;exitDx=0;exitDy=0;edgeStyle=orthogonalEdgeStyle;" edge="1" parent="1" source="7eArS-okKIMyMrA4SsoB-1" target="7eArS-okKIMyMrA4SsoB-19">
          <mxGeometry width="50" height="50" relative="1" as="geometry">
            <mxPoint x="350" y="440" as="sourcePoint" />
            <mxPoint x="400" y="390" as="targetPoint" />
          </mxGeometry>
        </mxCell>
        <mxCell id="7eArS-okKIMyMrA4SsoB-24" value="" style="endArrow=none;html=1;rounded=0;entryX=0;entryY=0.5;entryDx=0;entryDy=0;exitX=1;exitY=0.5;exitDx=0;exitDy=0;edgeStyle=orthogonalEdgeStyle;" edge="1" parent="1" source="7eArS-okKIMyMrA4SsoB-1" target="7eArS-okKIMyMrA4SsoB-20">
          <mxGeometry width="50" height="50" relative="1" as="geometry">
            <mxPoint x="350" y="440" as="sourcePoint" />
            <mxPoint x="400" y="390" as="targetPoint" />
          </mxGeometry>
        </mxCell>
        <mxCell id="7eArS-okKIMyMrA4SsoB-25" value="BranchCode" style="ellipse;whiteSpace=wrap;html=1;align=center;fontStyle=4;" vertex="1" parent="1">
          <mxGeometry x="410" y="540" width="100" height="40" as="geometry" />
        </mxCell>
        <mxCell id="7eArS-okKIMyMrA4SsoB-27" value="BranchName" style="ellipse;whiteSpace=wrap;html=1;align=center;" vertex="1" parent="1">
          <mxGeometry x="410" y="600" width="100" height="40" as="geometry" />
        </mxCell>
        <mxCell id="7eArS-okKIMyMrA4SsoB-28" value="City" style="ellipse;whiteSpace=wrap;html=1;align=center;" vertex="1" parent="1">
          <mxGeometry x="410" y="660" width="100" height="40" as="geometry" />
        </mxCell>
        <mxCell id="7eArS-okKIMyMrA4SsoB-29" value="" style="endArrow=none;html=1;rounded=0;entryX=0;entryY=0.5;entryDx=0;entryDy=0;exitX=1;exitY=0.5;exitDx=0;exitDy=0;edgeStyle=orthogonalEdgeStyle;" edge="1" parent="1" source="7eArS-okKIMyMrA4SsoB-3" target="7eArS-okKIMyMrA4SsoB-25">
          <mxGeometry width="50" height="50" relative="1" as="geometry">
            <mxPoint x="230" y="630" as="sourcePoint" />
            <mxPoint x="280" y="580" as="targetPoint" />
          </mxGeometry>
        </mxCell>
        <mxCell id="7eArS-okKIMyMrA4SsoB-30" value="" style="endArrow=none;html=1;rounded=0;entryX=0;entryY=0.5;entryDx=0;entryDy=0;exitX=1;exitY=0.5;exitDx=0;exitDy=0;edgeStyle=orthogonalEdgeStyle;" edge="1" parent="1" source="7eArS-okKIMyMrA4SsoB-3" target="7eArS-okKIMyMrA4SsoB-27">
          <mxGeometry width="50" height="50" relative="1" as="geometry">
            <mxPoint x="230" y="630" as="sourcePoint" />
            <mxPoint x="280" y="580" as="targetPoint" />
          </mxGeometry>
        </mxCell>
        <mxCell id="7eArS-okKIMyMrA4SsoB-31" value="" style="endArrow=none;html=1;rounded=0;entryX=0;entryY=0.5;entryDx=0;entryDy=0;exitX=1;exitY=0.5;exitDx=0;exitDy=0;edgeStyle=orthogonalEdgeStyle;" edge="1" parent="1" source="7eArS-okKIMyMrA4SsoB-3" target="7eArS-okKIMyMrA4SsoB-28">
          <mxGeometry width="50" height="50" relative="1" as="geometry">
            <mxPoint x="230" y="630" as="sourcePoint" />
            <mxPoint x="280" y="580" as="targetPoint" />
          </mxGeometry>
        </mxCell>
        <mxCell id="7eArS-okKIMyMrA4SsoB-32" value="Hosted by" style="rhombus;whiteSpace=wrap;html=1;" vertex="1" parent="1">
          <mxGeometry x="250" y="470" width="100" height="60" as="geometry" />
        </mxCell>
        <mxCell id="7eArS-okKIMyMrA4SsoB-33" value="FDID" style="ellipse;whiteSpace=wrap;html=1;align=center;fontStyle=4;" vertex="1" parent="1">
          <mxGeometry x="-420" y="269.75" width="100" height="40" as="geometry" />
        </mxCell>
        <mxCell id="7eArS-okKIMyMrA4SsoB-35" value="TransactionID" style="ellipse;whiteSpace=wrap;html=1;align=center;fontStyle=4;" vertex="1" parent="1">
          <mxGeometry x="-420" y="460" width="100" height="40" as="geometry" />
        </mxCell>
        <mxCell id="7eArS-okKIMyMrA4SsoB-36" value="AccountNo" style="ellipse;whiteSpace=wrap;html=1;align=center;" vertex="1" parent="1">
          <mxGeometry x="-420" y="329.75" width="100" height="40" as="geometry" />
        </mxCell>
        <mxCell id="7eArS-okKIMyMrA4SsoB-37" value="Amount" style="ellipse;whiteSpace=wrap;html=1;align=center;" vertex="1" parent="1">
          <mxGeometry x="-420" y="392.25" width="100" height="40" as="geometry" />
        </mxCell>
        <mxCell id="7eArS-okKIMyMrA4SsoB-39" value="" style="endArrow=none;html=1;rounded=0;entryX=1;entryY=0.5;entryDx=0;entryDy=0;exitX=0;exitY=0.5;exitDx=0;exitDy=0;edgeStyle=orthogonalEdgeStyle;" edge="1" parent="1" source="7eArS-okKIMyMrA4SsoB-6" target="7eArS-okKIMyMrA4SsoB-33">
          <mxGeometry width="50" height="50" relative="1" as="geometry">
            <mxPoint x="-40" y="470" as="sourcePoint" />
            <mxPoint x="10" y="420" as="targetPoint" />
          </mxGeometry>
        </mxCell>
        <mxCell id="7eArS-okKIMyMrA4SsoB-40" value="" style="endArrow=none;html=1;rounded=0;entryX=1;entryY=0.5;entryDx=0;entryDy=0;exitX=0;exitY=0.5;exitDx=0;exitDy=0;" edge="1" parent="1" source="7eArS-okKIMyMrA4SsoB-6" target="7eArS-okKIMyMrA4SsoB-36">
          <mxGeometry width="50" height="50" relative="1" as="geometry">
            <mxPoint x="-40" y="470" as="sourcePoint" />
            <mxPoint x="10" y="420" as="targetPoint" />
          </mxGeometry>
        </mxCell>
        <mxCell id="7eArS-okKIMyMrA4SsoB-41" value="" style="endArrow=none;html=1;rounded=0;entryX=0;entryY=0.5;entryDx=0;entryDy=0;exitX=1;exitY=0.5;exitDx=0;exitDy=0;edgeStyle=orthogonalEdgeStyle;" edge="1" parent="1" source="7eArS-okKIMyMrA4SsoB-37" target="7eArS-okKIMyMrA4SsoB-6">
          <mxGeometry width="50" height="50" relative="1" as="geometry">
            <mxPoint x="-40" y="470" as="sourcePoint" />
            <mxPoint x="10" y="420" as="targetPoint" />
          </mxGeometry>
        </mxCell>
        <mxCell id="7eArS-okKIMyMrA4SsoB-44" value="FromAC" style="ellipse;whiteSpace=wrap;html=1;align=center;" vertex="1" parent="1">
          <mxGeometry x="-420" y="509" width="100" height="40" as="geometry" />
        </mxCell>
        <mxCell id="7eArS-okKIMyMrA4SsoB-46" value="ToAC" style="ellipse;whiteSpace=wrap;html=1;align=center;" vertex="1" parent="1">
          <mxGeometry x="-420" y="560" width="100" height="40" as="geometry" />
        </mxCell>
        <mxCell id="7eArS-okKIMyMrA4SsoB-48" value="Time" style="ellipse;whiteSpace=wrap;html=1;align=center;" vertex="1" parent="1">
          <mxGeometry x="-420" y="660" width="100" height="40" as="geometry" />
        </mxCell>
        <mxCell id="7eArS-okKIMyMrA4SsoB-49" value="Date" style="ellipse;whiteSpace=wrap;html=1;align=center;" vertex="1" parent="1">
          <mxGeometry x="-420" y="610" width="100" height="40" as="geometry" />
        </mxCell>
        <mxCell id="7eArS-okKIMyMrA4SsoB-50" value="Amount" style="ellipse;whiteSpace=wrap;html=1;align=center;" vertex="1" parent="1">
          <mxGeometry x="-420" y="710" width="100" height="40" as="geometry" />
        </mxCell>
        <mxCell id="7eArS-okKIMyMrA4SsoB-51" value="" style="endArrow=none;html=1;rounded=0;entryX=1;entryY=0.5;entryDx=0;entryDy=0;exitX=0;exitY=0.5;exitDx=0;exitDy=0;edgeStyle=orthogonalEdgeStyle;" edge="1" parent="1" source="7eArS-okKIMyMrA4SsoB-4" target="7eArS-okKIMyMrA4SsoB-35">
          <mxGeometry width="50" height="50" relative="1" as="geometry">
            <mxPoint x="-270" y="580" as="sourcePoint" />
            <mxPoint x="-220" y="530" as="targetPoint" />
          </mxGeometry>
        </mxCell>
        <mxCell id="7eArS-okKIMyMrA4SsoB-52" value="" style="endArrow=none;html=1;rounded=0;entryX=1;entryY=0.5;entryDx=0;entryDy=0;exitX=0;exitY=0.5;exitDx=0;exitDy=0;edgeStyle=orthogonalEdgeStyle;" edge="1" parent="1" source="7eArS-okKIMyMrA4SsoB-4" target="7eArS-okKIMyMrA4SsoB-44">
          <mxGeometry width="50" height="50" relative="1" as="geometry">
            <mxPoint x="-250" y="594" as="sourcePoint" />
            <mxPoint x="-310" y="490" as="targetPoint" />
          </mxGeometry>
        </mxCell>
        <mxCell id="7eArS-okKIMyMrA4SsoB-53" value="" style="endArrow=none;html=1;rounded=0;entryX=1;entryY=0.5;entryDx=0;entryDy=0;exitX=0;exitY=0.5;exitDx=0;exitDy=0;edgeStyle=orthogonalEdgeStyle;" edge="1" parent="1" source="7eArS-okKIMyMrA4SsoB-4" target="7eArS-okKIMyMrA4SsoB-46">
          <mxGeometry width="50" height="50" relative="1" as="geometry">
            <mxPoint x="-270" y="580" as="sourcePoint" />
            <mxPoint x="-220" y="530" as="targetPoint" />
          </mxGeometry>
        </mxCell>
        <mxCell id="7eArS-okKIMyMrA4SsoB-54" value="" style="endArrow=none;html=1;rounded=0;entryX=0;entryY=0.5;entryDx=0;entryDy=0;exitX=1;exitY=0.5;exitDx=0;exitDy=0;edgeStyle=orthogonalEdgeStyle;" edge="1" parent="1" source="7eArS-okKIMyMrA4SsoB-49" target="7eArS-okKIMyMrA4SsoB-4">
          <mxGeometry width="50" height="50" relative="1" as="geometry">
            <mxPoint x="-290" y="610" as="sourcePoint" />
            <mxPoint x="-240" y="560" as="targetPoint" />
          </mxGeometry>
        </mxCell>
        <mxCell id="7eArS-okKIMyMrA4SsoB-55" value="" style="endArrow=none;html=1;rounded=0;entryX=0;entryY=0.5;entryDx=0;entryDy=0;exitX=1;exitY=0.5;exitDx=0;exitDy=0;edgeStyle=orthogonalEdgeStyle;" edge="1" parent="1" source="7eArS-okKIMyMrA4SsoB-48" target="7eArS-okKIMyMrA4SsoB-4">
          <mxGeometry width="50" height="50" relative="1" as="geometry">
            <mxPoint x="-290" y="670" as="sourcePoint" />
            <mxPoint x="-240" y="620" as="targetPoint" />
          </mxGeometry>
        </mxCell>
        <mxCell id="7eArS-okKIMyMrA4SsoB-56" value="" style="endArrow=none;html=1;rounded=0;entryX=0;entryY=0.5;entryDx=0;entryDy=0;exitX=1;exitY=0.5;exitDx=0;exitDy=0;edgeStyle=orthogonalEdgeStyle;" edge="1" parent="1" source="7eArS-okKIMyMrA4SsoB-50" target="7eArS-okKIMyMrA4SsoB-4">
          <mxGeometry width="50" height="50" relative="1" as="geometry">
            <mxPoint x="-260" y="680" as="sourcePoint" />
            <mxPoint x="-210" y="630" as="targetPoint" />
          </mxGeometry>
        </mxCell>
        <mxCell id="7eArS-okKIMyMrA4SsoB-57" value="ATMTransactions" style="whiteSpace=wrap;html=1;align=center;" vertex="1" parent="1">
          <mxGeometry x="-60" y="705" width="130" height="70" as="geometry" />
        </mxCell>
        <mxCell id="7eArS-okKIMyMrA4SsoB-58" value="Amount" style="ellipse;whiteSpace=wrap;html=1;align=center;" vertex="1" parent="1">
          <mxGeometry x="120" y="810" width="100" height="40" as="geometry" />
        </mxCell>
        <mxCell id="7eArS-okKIMyMrA4SsoB-59" value="AccountNo" style="ellipse;whiteSpace=wrap;html=1;align=center;" vertex="1" parent="1">
          <mxGeometry x="-210" y="810" width="100" height="40" as="geometry" />
        </mxCell>
        <mxCell id="7eArS-okKIMyMrA4SsoB-60" value="Date" style="ellipse;whiteSpace=wrap;html=1;align=center;" vertex="1" parent="1">
          <mxGeometry x="-100" y="810" width="100" height="40" as="geometry" />
        </mxCell>
        <mxCell id="7eArS-okKIMyMrA4SsoB-61" value="Time" style="ellipse;whiteSpace=wrap;html=1;align=center;" vertex="1" parent="1">
          <mxGeometry x="10" y="810" width="100" height="40" as="geometry" />
        </mxCell>
        <mxCell id="7eArS-okKIMyMrA4SsoB-63" value="TransactionID" style="ellipse;whiteSpace=wrap;html=1;align=center;fontStyle=4;" vertex="1" parent="1">
          <mxGeometry x="-320" y="810" width="100" height="40" as="geometry" />
        </mxCell>
        <mxCell id="7eArS-okKIMyMrA4SsoB-64" value="Type" style="ellipse;whiteSpace=wrap;html=1;align=center;" vertex="1" parent="1">
          <mxGeometry x="230" y="810" width="100" height="40" as="geometry" />
        </mxCell>
        <mxCell id="7eArS-okKIMyMrA4SsoB-65" value="" style="endArrow=none;html=1;rounded=0;entryX=0.5;entryY=1;entryDx=0;entryDy=0;exitX=0.5;exitY=0;exitDx=0;exitDy=0;edgeStyle=orthogonalEdgeStyle;" edge="1" parent="1" source="7eArS-okKIMyMrA4SsoB-63" target="7eArS-okKIMyMrA4SsoB-57">
          <mxGeometry width="50" height="50" relative="1" as="geometry">
            <mxPoint x="80" y="810" as="sourcePoint" />
            <mxPoint x="130" y="760" as="targetPoint" />
          </mxGeometry>
        </mxCell>
        <mxCell id="7eArS-okKIMyMrA4SsoB-66" value="" style="endArrow=none;html=1;rounded=0;entryX=0.5;entryY=1;entryDx=0;entryDy=0;exitX=0.5;exitY=0;exitDx=0;exitDy=0;edgeStyle=orthogonalEdgeStyle;" edge="1" parent="1" source="7eArS-okKIMyMrA4SsoB-64" target="7eArS-okKIMyMrA4SsoB-57">
          <mxGeometry width="50" height="50" relative="1" as="geometry">
            <mxPoint x="80" y="810" as="sourcePoint" />
            <mxPoint x="130" y="760" as="targetPoint" />
          </mxGeometry>
        </mxCell>
        <mxCell id="7eArS-okKIMyMrA4SsoB-67" value="" style="endArrow=none;html=1;rounded=0;entryX=0.5;entryY=1;entryDx=0;entryDy=0;exitX=0.5;exitY=0;exitDx=0;exitDy=0;edgeStyle=orthogonalEdgeStyle;" edge="1" parent="1" source="7eArS-okKIMyMrA4SsoB-58" target="7eArS-okKIMyMrA4SsoB-57">
          <mxGeometry width="50" height="50" relative="1" as="geometry">
            <mxPoint x="80" y="810" as="sourcePoint" />
            <mxPoint x="130" y="760" as="targetPoint" />
          </mxGeometry>
        </mxCell>
        <mxCell id="7eArS-okKIMyMrA4SsoB-68" value="" style="endArrow=none;html=1;rounded=0;entryX=0.5;entryY=1;entryDx=0;entryDy=0;exitX=0.5;exitY=0;exitDx=0;exitDy=0;edgeStyle=orthogonalEdgeStyle;" edge="1" parent="1" source="7eArS-okKIMyMrA4SsoB-59" target="7eArS-okKIMyMrA4SsoB-57">
          <mxGeometry width="50" height="50" relative="1" as="geometry">
            <mxPoint x="80" y="810" as="sourcePoint" />
            <mxPoint x="130" y="760" as="targetPoint" />
          </mxGeometry>
        </mxCell>
        <mxCell id="7eArS-okKIMyMrA4SsoB-69" value="" style="endArrow=none;html=1;rounded=0;entryX=0.5;entryY=1;entryDx=0;entryDy=0;exitX=0.5;exitY=0;exitDx=0;exitDy=0;edgeStyle=orthogonalEdgeStyle;" edge="1" parent="1" source="7eArS-okKIMyMrA4SsoB-60" target="7eArS-okKIMyMrA4SsoB-57">
          <mxGeometry width="50" height="50" relative="1" as="geometry">
            <mxPoint x="80" y="810" as="sourcePoint" />
            <mxPoint x="130" y="760" as="targetPoint" />
          </mxGeometry>
        </mxCell>
        <mxCell id="7eArS-okKIMyMrA4SsoB-70" value="" style="endArrow=none;html=1;rounded=0;entryX=0.5;entryY=1;entryDx=0;entryDy=0;exitX=0.5;exitY=0;exitDx=0;exitDy=0;edgeStyle=orthogonalEdgeStyle;" edge="1" parent="1" source="7eArS-okKIMyMrA4SsoB-61" target="7eArS-okKIMyMrA4SsoB-57">
          <mxGeometry width="50" height="50" relative="1" as="geometry">
            <mxPoint x="80" y="810" as="sourcePoint" />
            <mxPoint x="130" y="760" as="targetPoint" />
          </mxGeometry>
        </mxCell>
        <mxCell id="7eArS-okKIMyMrA4SsoB-71" value="Creates" style="rhombus;whiteSpace=wrap;html=1;" vertex="1" parent="1">
          <mxGeometry x="180" y="215" width="100" height="60" as="geometry" />
        </mxCell>
        <mxCell id="7eArS-okKIMyMrA4SsoB-72" value="" style="edgeStyle=entityRelationEdgeStyle;fontSize=12;html=1;endArrow=ERoneToMany;rounded=0;entryX=1;entryY=0.5;entryDx=0;entryDy=0;exitX=0;exitY=0.5;exitDx=0;exitDy=0;" edge="1" parent="1" source="7eArS-okKIMyMrA4SsoB-71" target="7eArS-okKIMyMrA4SsoB-2">
          <mxGeometry width="100" height="100" relative="1" as="geometry">
            <mxPoint x="10" y="440" as="sourcePoint" />
            <mxPoint x="110" y="340" as="targetPoint" />
          </mxGeometry>
        </mxCell>
        <mxCell id="7eArS-okKIMyMrA4SsoB-73" value="" style="edgeStyle=orthogonalEdgeStyle;fontSize=12;html=1;endArrow=ERoneToMany;rounded=0;exitX=1;exitY=0.5;exitDx=0;exitDy=0;entryX=0.5;entryY=0;entryDx=0;entryDy=0;" edge="1" parent="1" source="7eArS-okKIMyMrA4SsoB-71" target="7eArS-okKIMyMrA4SsoB-1">
          <mxGeometry width="100" height="100" relative="1" as="geometry">
            <mxPoint x="190" y="299" as="sourcePoint" />
            <mxPoint x="300" y="320" as="targetPoint" />
          </mxGeometry>
        </mxCell>
        <mxCell id="7eArS-okKIMyMrA4SsoB-74" value="" style="edgeStyle=orthogonalEdgeStyle;fontSize=12;html=1;endArrow=ERmandOne;rounded=0;entryX=0.5;entryY=0;entryDx=0;entryDy=0;exitX=0.5;exitY=1;exitDx=0;exitDy=0;" edge="1" parent="1" source="7eArS-okKIMyMrA4SsoB-32" target="7eArS-okKIMyMrA4SsoB-3">
          <mxGeometry width="100" height="100" relative="1" as="geometry">
            <mxPoint x="30" y="540" as="sourcePoint" />
            <mxPoint x="130" y="440" as="targetPoint" />
          </mxGeometry>
        </mxCell>
        <mxCell id="7eArS-okKIMyMrA4SsoB-76" value="" style="edgeStyle=orthogonalEdgeStyle;fontSize=12;html=1;endArrow=ERoneToMany;rounded=0;entryX=0.5;entryY=1;entryDx=0;entryDy=0;exitX=0.5;exitY=0;exitDx=0;exitDy=0;" edge="1" parent="1" source="7eArS-okKIMyMrA4SsoB-32" target="7eArS-okKIMyMrA4SsoB-1">
          <mxGeometry width="100" height="100" relative="1" as="geometry">
            <mxPoint x="30" y="540" as="sourcePoint" />
            <mxPoint x="130" y="440" as="targetPoint" />
          </mxGeometry>
        </mxCell>
        <mxCell id="7eArS-okKIMyMrA4SsoB-77" value="Created by" style="rhombus;whiteSpace=wrap;html=1;" vertex="1" parent="1">
          <mxGeometry x="-80" y="320" width="90" height="60" as="geometry" />
        </mxCell>
        <mxCell id="7eArS-okKIMyMrA4SsoB-78" value="" style="edgeStyle=orthogonalEdgeStyle;fontSize=12;html=1;endArrow=ERoneToMany;rounded=0;exitX=0;exitY=0.5;exitDx=0;exitDy=0;entryX=1;entryY=0.5;entryDx=0;entryDy=0;" edge="1" parent="1" source="7eArS-okKIMyMrA4SsoB-77" target="7eArS-okKIMyMrA4SsoB-6">
          <mxGeometry width="100" height="100" relative="1" as="geometry">
            <mxPoint x="-90.51999999999998" y="417.5" as="sourcePoint" />
            <mxPoint x="-70.51999999999998" y="522.5" as="targetPoint" />
          </mxGeometry>
        </mxCell>
        <mxCell id="7eArS-okKIMyMrA4SsoB-79" value="Made by" style="rhombus;whiteSpace=wrap;html=1;" vertex="1" parent="1">
          <mxGeometry x="-110" y="575" width="90" height="60" as="geometry" />
        </mxCell>
        <mxCell id="7eArS-okKIMyMrA4SsoB-80" value="" style="edgeStyle=orthogonalEdgeStyle;fontSize=12;html=1;endArrow=ERoneToMany;rounded=0;exitX=0;exitY=0.5;exitDx=0;exitDy=0;entryX=1;entryY=0.5;entryDx=0;entryDy=0;" edge="1" parent="1" source="7eArS-okKIMyMrA4SsoB-79" target="7eArS-okKIMyMrA4SsoB-4">
          <mxGeometry width="100" height="100" relative="1" as="geometry">
            <mxPoint x="-70" y="489.6" as="sourcePoint" />
            <mxPoint x="-140" y="489.6" as="targetPoint" />
          </mxGeometry>
        </mxCell>
        <mxCell id="7eArS-okKIMyMrA4SsoB-81" value="Made by" style="rhombus;whiteSpace=wrap;html=1;" vertex="1" parent="1">
          <mxGeometry x="63" y="450" width="90" height="60" as="geometry" />
        </mxCell>
        <mxCell id="7eArS-okKIMyMrA4SsoB-82" value="" style="edgeStyle=orthogonalEdgeStyle;fontSize=12;html=1;endArrow=ERoneToMany;rounded=0;exitX=0.5;exitY=1;exitDx=0;exitDy=0;entryX=0.5;entryY=0;entryDx=0;entryDy=0;" edge="1" parent="1" source="7eArS-okKIMyMrA4SsoB-81" target="7eArS-okKIMyMrA4SsoB-57">
          <mxGeometry width="100" height="100" relative="1" as="geometry">
            <mxPoint x="130" y="600" as="sourcePoint" />
            <mxPoint x="60" y="600" as="targetPoint" />
            <Array as="points">
              <mxPoint x="108" y="680" />
              <mxPoint x="5" y="680" />
            </Array>
          </mxGeometry>
        </mxCell>
        <mxCell id="7eArS-okKIMyMrA4SsoB-85" value="" style="edgeStyle=orthogonalEdgeStyle;fontSize=12;html=1;endArrow=ERzeroToOne;endFill=1;rounded=0;entryX=0.5;entryY=1;entryDx=0;entryDy=0;exitX=1;exitY=0.5;exitDx=0;exitDy=0;" edge="1" parent="1" source="7eArS-okKIMyMrA4SsoB-77" target="7eArS-okKIMyMrA4SsoB-2">
          <mxGeometry width="100" height="100" relative="1" as="geometry">
            <mxPoint x="70" y="510" as="sourcePoint" />
            <mxPoint x="170" y="410" as="targetPoint" />
          </mxGeometry>
        </mxCell>
        <mxCell id="7eArS-okKIMyMrA4SsoB-88" value="" style="edgeStyle=orthogonalEdgeStyle;fontSize=12;html=1;endArrow=ERzeroToOne;endFill=1;rounded=0;entryX=0.75;entryY=1;entryDx=0;entryDy=0;exitX=0.5;exitY=0;exitDx=0;exitDy=0;" edge="1" parent="1" source="7eArS-okKIMyMrA4SsoB-81" target="7eArS-okKIMyMrA4SsoB-2">
          <mxGeometry width="100" height="100" relative="1" as="geometry">
            <mxPoint x="20" y="360" as="sourcePoint" />
            <mxPoint x="85" y="290" as="targetPoint" />
          </mxGeometry>
        </mxCell>
        <mxCell id="7eArS-okKIMyMrA4SsoB-89" value="" style="edgeStyle=orthogonalEdgeStyle;fontSize=12;html=1;endArrow=ERoneToMany;rounded=0;exitX=1;exitY=0.5;exitDx=0;exitDy=0;entryX=0.25;entryY=1;entryDx=0;entryDy=0;" edge="1" parent="1" source="7eArS-okKIMyMrA4SsoB-79" target="7eArS-okKIMyMrA4SsoB-2">
          <mxGeometry width="100" height="100" relative="1" as="geometry">
            <mxPoint x="118" y="520" as="sourcePoint" />
            <mxPoint x="40" y="370" as="targetPoint" />
          </mxGeometry>
        </mxCell>
      </root>
    </mxGraphModel>
  </diagram>
</mxfile>
